<?xml version="1.0" encoding="utf-8"?>
<!-- Generator: Adobe Illustrator 25.3.1, SVG Export Plug-In . SVG Version: 6.00 Build 0)  -->
<svg version="1.1" id="Layer_1" xmlns="http://www.w3.org/2000/svg" xmlns:xlink="http://www.w3.org/1999/xlink" x="0px" y="0px"
	 viewBox="0 0 113.1 36.7" style="enable-background:new 0 0 113.1 36.7;" xml:space="preserve">
<style type="text/css">
	.st0{fill:url(#SVGID_1_);stroke:#C9AB6E;stroke-width:3;stroke-miterlimit:10;}
	.st1{enable-background:new    ;}
	.st2{fill:#F0E6D3;}
</style>
<linearGradient id="SVGID_1_" gradientUnits="userSpaceOnUse" x1="56.535" y1="-5.48" x2="56.535" y2="28.09" gradientTransform="matrix(1 0 0 -1 0 29.82)">
	<stop  offset="0" style="stop-color:#32281E"/>
	<stop  offset="0.5" style="stop-color:#32281E;stop-opacity:0.9"/>
	<stop  offset="1" style="stop-color:#32281E"/>
</linearGradient>
<rect x="1.5" y="1.5" class="st0" width="110.1" height="33.7"/>
<g class="st1">
	<path class="st2" d="M37.1,17.8v-1.2h1.5V12h-15v-1.2h18v5.8h-1.5v1.2h3v1.2H22.1v-1.2h9v-3.5h3v3.5H37.1z M23.6,21.3h3v-1.2h12
		v1.2h3v3.5h-3v1.2h-12v-1.2h-3V21.3z M28.1,24.7h9v-1.2h1.5v-1.2h-1.5v-1.2h-9v1.2h-1.5v1.2h1.5V24.7z"/>
	<path class="st2" d="M46.1,10.8h9v7h-1.5v1.2h-6v-1.2H52V12h-6V10.8z M65.5,24.7H64v1.2h-1.5v-4.6h-15v-1.2h18V24.7z M58,13.1h4.5
		v-2.3h3v8.1h-3v-2.3H58v-1.2h4.5v-1.2H58V13.1z"/>
	<path class="st2" d="M71.5,18.9v-3.5h15v-2.3h-15V12h18v4.6h-15v2.3h15v1.2H82v3.5h9v1.2H70v-1.2h9v-3.5h-6v-1.2H71.5z"/>
</g>
</svg>
