<?xml version="1.0" encoding="utf-8"?>
<!-- Generator: Adobe Illustrator 25.3.1, SVG Export Plug-In . SVG Version: 6.00 Build 0)  -->
<svg version="1.1" id="Layer_1" xmlns="http://www.w3.org/2000/svg" xmlns:xlink="http://www.w3.org/1999/xlink" x="0px" y="0px"
	 viewBox="0 0 113.1 36.7" style="enable-background:new 0 0 113.1 36.7;" xml:space="preserve">
<style type="text/css">
	.st0{fill:url(#SVGID_1_);stroke:#C9AB6E;stroke-width:3;stroke-miterlimit:10;}
	.st1{enable-background:new    ;}
	.st2{fill:#F0E6D3;}
</style>
<linearGradient id="SVGID_1_" gradientUnits="userSpaceOnUse" x1="56.55" y1="425.82" x2="56.55" y2="373.78" gradientTransform="matrix(1 0 0 1 0 -380.9)">
	<stop  offset="0" style="stop-color:#060C12;stop-opacity:0.9"/>
	<stop  offset="0.5" style="stop-color:#060C12"/>
	<stop  offset="1" style="stop-color:#060C12;stop-opacity:0.9"/>
</linearGradient>
<rect x="1.5" y="1.5" class="st0" width="110.1" height="33.7"/>
<g class="st1">
	<path class="st2" d="M37,17.7v-1.2h1.5v-4.6h-15v-1.2h18v5.8H40v1.2h3v1.2H22v-1.2h9v-3.5h3v3.5H37z M23.5,21.2h3V20h12v1.2h3v3.5
		h-3v1.2h-12v-1.2h-3V21.2z M28,24.6h9v-1.2h1.5v-1.2H37v-1.2h-9v1.2h-1.5v1.2H28V24.6z"/>
	<path class="st2" d="M46,10.7h9v7h-1.5v1.2h-6v-1.2H52v-5.8h-6V10.7z M65.4,24.6h-1.5v1.2h-1.5v-4.6h-15V20h18V24.6z M58,13h4.5
		v-2.3h3v8.1h-3v-2.3H58v-1.2h4.5v-1.2H58V13z"/>
	<path class="st2" d="M71.4,18.8v-3.5h15V13h-15v-1.2h18v4.6h-15v2.3h15V20h-7.5v3.5h9v1.2H69.9v-1.2h9V20h-6v-1.2H71.4z"/>
</g>
</svg>
