<?xml version="1.0" encoding="utf-8"?>
<!-- Generator: Adobe Illustrator 25.3.1, SVG Export Plug-In . SVG Version: 6.00 Build 0)  -->
<svg version="1.1" id="Layer_1" xmlns="http://www.w3.org/2000/svg" xmlns:xlink="http://www.w3.org/1999/xlink" x="0px" y="0px"
	 viewBox="0 0 42.1 47.7" style="enable-background:new 0 0 42.1 47.7;" xml:space="preserve">
<style type="text/css">
	.st0{fill:none;stroke:#C9AB6E;stroke-width:2;stroke-miterlimit:10;}
	.st1{fill:#32281E;stroke:#C9AB6E;stroke-miterlimit:10;}
	.st2{fill:#C9AB6E;}
	.st3{opacity:0.5;fill:#C9AB6E;enable-background:new    ;}
</style>
<path class="st0" d="M28.7,8.1l-2.6,2.6c8.8,2.6,13.9,11.8,11.3,20.7c-2.1,7.2-8.8,12.1-16.3,12c-9.2,0.1-16.8-7.2-16.9-16.4
	C4,19.5,8.9,12.8,16.1,10.7l-2.6-2.6C3.2,12.3-1.7,24,2.6,34.3s15.9,15.1,26.2,10.9S43.9,29.2,39.6,19C37.6,14.1,33.7,10.1,28.7,8.1
	L28.7,8.1z"/>
<path class="st1" d="M4.1,26.6c0.1,9.3,7.6,16.8,16.9,16.7c0,0,0,0,0.1,0c9.2,0.1,16.8-7.2,16.9-16.4c0.1-7.5-4.8-14.1-11.9-16.2
	l-5,5l-5-5C9,12.8,4.1,19.2,4.1,26.6z"/>
<path class="st0" d="M21.1,6.6"/>
<path class="st0" d="M13.4,8.1l7.6,7.6l7.6-7.6"/>
<rect x="18" y="1.3" transform="matrix(0.7071 -0.7071 0.7071 0.7071 3.0635 16.1766)" class="st2" width="6.2" height="6.2"/>
<polygon class="st3" points="13.4,19.6 26.9,19.6 24.6,21.9 16.1,21.9 16.1,30.2 13.6,32.8 "/>
<polygon class="st2" points="28.7,35.8 28.7,22.4 26.4,24.7 26.4,33.1 18.1,33.1 15.5,35.7 "/>
<rect x="18.6" y="25.1" class="st3" width="4.9" height="4.9"/>
</svg>
