<?xml version="1.0" encoding="utf-8"?>
<!-- Generator: Adobe Illustrator 25.3.1, SVG Export Plug-In . SVG Version: 6.00 Build 0)  -->
<svg version="1.1" id="Layer_1" xmlns="http://www.w3.org/2000/svg" xmlns:xlink="http://www.w3.org/1999/xlink" x="0px" y="0px"
	 viewBox="0 0 113.1 36.7" style="enable-background:new 0 0 113.1 36.7;" xml:space="preserve">
<style type="text/css">
	.st0{fill:none;stroke:#F0E6D2;stroke-width:3;stroke-miterlimit:10;}
	.st1{enable-background:new    ;}
	.st2{fill:#F0E6D3;}
</style>
<rect x="1.5" y="1.5" class="st0" width="110.1" height="33.7"/>
<g class="st1">
	<path class="st2" d="M32.6,13.1v5.8h-1.5v1.2h3v-4.6h3v4.6h1.5v1.2h-1.5v2.3h-3v-2.3h-6v-2.3h1.5v-5.8H32.6z"/>
	<path class="st2" d="M49.1,18.9h-6v-1.2h-1.5v-1.2h-1.5v-3.5h1.5V12h1.5v-1.2h6V12h1.5v1.2H52v3.5h-1.5v1.2h-1.5V18.9z M41.6,22.4
		h15v-1.2h-15v-1.2h18v3.5h-15v1.2h15v1.2H43.1v-1.2h-1.5V22.4z M44.6,13.1h-1.5v3.5h1.5v1.2h3v-1.2h1.5v-3.5h-1.5V12h-3V13.1z
		 M59.5,18.9h-3v-8.1h3V18.9z"/>
	<path class="st2" d="M74.5,23.6H76v1.2h-3v-1.2h-1.5v-1.2h-3v1.2H67v1.2h-3v-1.2h1.5v-1.2H67v-1.2h1.5v-8.1H64V12h4.5v-1.2h3V12H76
		v1.2h-4.5v8.1H73v1.2h1.5V23.6z M82,17.8h4.5v1.2H82v7h-3V10.8h3V17.8z"/>
</g>
</svg>
