<svg id="Layer_1" data-name="Layer 1" xmlns="http://www.w3.org/2000/svg" viewBox="0 0 42.12 47.68"><defs><style>.cls-1{fill:none;stroke-width:2px;}.cls-1,.cls-2{stroke:#c9ab6e;stroke-miterlimit:10;}.cls-2{fill:#32281e;}.cls-3{fill:#c9ab6e;}.cls-4{fill:#c8ab6f;}</style></defs><path class="cls-1" d="M32.64,9.73,30,12.33A16.67,16.67,0,0,1,25,45a16.67,16.67,0,0,1-5-32.65l-2.6-2.6a20.06,20.06,0,1,0,15.28,0Z" transform="translate(-3.94 -1.66)"/><path class="cls-2" d="M8,28.28A16.83,16.83,0,0,0,25,45a16.67,16.67,0,0,0,5-32.65l-5,5-5-5A16.74,16.74,0,0,0,8,28.28Z" transform="translate(-3.94 -1.66)"/><path class="cls-1" d="M25,8.22" transform="translate(-3.94 -1.66)"/><path class="cls-1" d="M17.36,9.73,25,17.35l7.64-7.62" transform="translate(-3.94 -1.66)"/><rect class="cls-3" x="21.89" y="2.94" width="6.21" height="6.21" transform="translate(-0.89 17.79) rotate(-45)"/><path class="cls-4" d="M16.31,27.45a11.38,11.38,0,0,1,2.49,3.84,11.3,11.3,0,0,1,.81,4.1,8.91,8.91,0,0,1,5.78,5.26,20.87,20.87,0,0,0-.26-11,20.82,20.82,0,0,0-6-9.45,19,19,0,0,1,2,5.26,19.33,19.33,0,0,1,.36,5.62,6,6,0,0,0-5.17-3.66Z" transform="translate(-3.94 -1.66)"/><path class="cls-4" d="M26,27.54a5.79,5.79,0,0,1,.83,1.61,5.91,5.91,0,0,1,.27,2.4,42,42,0,0,1,1.54-5.34,42.53,42.53,0,0,1,2.73-6A21.9,21.9,0,0,0,26,27.54Z" transform="translate(-3.94 -1.66)"/><path class="cls-4" d="M33.69,26.34a10.85,10.85,0,0,0-5.53,11.5l3.48-3.39a8.41,8.41,0,0,1,.05-4.77A8.28,8.28,0,0,1,33.69,26.34Z" transform="translate(-3.94 -1.66)"/></svg>