<?xml version="1.0" encoding="utf-8"?>
<!-- Generator: Adobe Illustrator 25.3.1, SVG Export Plug-In . SVG Version: 6.00 Build 0)  -->
<svg version="1.1" id="Layer_1" xmlns="http://www.w3.org/2000/svg" xmlns:xlink="http://www.w3.org/1999/xlink" x="0px" y="0px"
	 viewBox="0 0 113.1 36.7" style="enable-background:new 0 0 113.1 36.7;" xml:space="preserve">
<style type="text/css">
	.st0{fill:url(#SVGID_1_);stroke:#C9AB6E;stroke-width:3;stroke-miterlimit:10;}
	.st1{enable-background:new    ;}
	.st2{fill:#F0E6D3;}
</style>
<linearGradient id="SVGID_1_" gradientUnits="userSpaceOnUse" x1="56.55" y1="425.82" x2="56.55" y2="373.78" gradientTransform="matrix(1 0 0 1 0 -380.9)">
	<stop  offset="0" style="stop-color:#060C12;stop-opacity:0.9"/>
	<stop  offset="0.5" style="stop-color:#060C12"/>
	<stop  offset="1" style="stop-color:#060C12;stop-opacity:0.9"/>
</linearGradient>
<rect x="1.5" y="1.5" class="st0" width="110.1" height="33.7"/>
<g class="st1">
	<path class="st2" d="M46,18.8h-3v-1.2h-1.5v-1.2h-3v1.2H37v1.2h-3v-1.2h1.5v-1.2H37v-1.2h1.5v-3.5H34v-1.2h12v1.2h-4.5v3.5H43v1.2
		h1.5v1.2H46V18.8z M35.5,21.2h3V20h12v1.2h3v3.5h-3v1.2h-12v-1.2h-3V21.2z M40,22.3h-1.5v1.2H40v1.2h9v-1.2h1.5v-1.2H49v-1.2h-9
		V22.3z M53.5,18.8h-3v-3.5H46v-1.2h4.5v-3.5h3V18.8z"/>
	<path class="st2" d="M59.5,11.9v-1.2h18v5.8h-1.5v1.2h3v1.2H58v-1.2h15v-1.2h1.5v-4.6H59.5z M61,24.6h-1.5v-2.3h15v-1.2h-15V20h18
		v3.5h-15v1.2h15v1.2H61V24.6z"/>
</g>
</svg>
