<svg id="Layer_1" data-name="Layer 1" xmlns="http://www.w3.org/2000/svg" viewBox="0 0 42.12 47.68"><defs><style>.cls-1{fill:none;stroke-width:2px;}.cls-1,.cls-2{stroke:#c9ab6e;stroke-miterlimit:10;}.cls-2{fill:#32281e;}.cls-3,.cls-4{fill:#c9ab6e;}.cls-4{opacity:0.5;}.cls-5{fill:#c8ab6f;}</style></defs><path class="cls-1" d="M32.64,9.73,30,12.33A16.67,16.67,0,0,1,25,45a16.67,16.67,0,0,1-5-32.65l-2.6-2.6a20.06,20.06,0,1,0,15.28,0Z" transform="translate(-3.94 -1.66)"/><path class="cls-2" d="M8,28.28A16.83,16.83,0,0,0,25,45a16.67,16.67,0,0,0,5-32.65l-5,5-5-5A16.74,16.74,0,0,0,8,28.28Z" transform="translate(-3.94 -1.66)"/><path class="cls-1" d="M25,8.22" transform="translate(-3.94 -1.66)"/><path class="cls-1" d="M17.36,9.73,25,17.35l7.64-7.62" transform="translate(-3.94 -1.66)"/><rect class="cls-3" x="21.89" y="2.94" width="6.21" height="6.21" transform="translate(-0.89 17.79) rotate(-45)"/><polygon class="cls-4" points="11.99 19.17 25.42 19.17 23.15 21.44 14.71 21.44 14.71 29.79 12.12 32.38 11.99 19.17"/><polygon class="cls-4" points="30.14 37.3 30.14 23.87 27.87 26.14 27.87 34.58 19.52 34.58 16.93 37.17 30.14 37.3"/><polygon class="cls-5" points="12.18 37.31 13.11 33.54 19.64 27 26.18 20.47 29.95 19.54 29.01 23.31 22.48 29.84 15.95 36.37 12.18 37.31"/></svg>