<?xml version="1.0" encoding="utf-8"?>
<!-- Generator: Adobe Illustrator 25.3.1, SVG Export Plug-In . SVG Version: 6.00 Build 0)  -->
<svg version="1.1" id="Layer_1" xmlns="http://www.w3.org/2000/svg" xmlns:xlink="http://www.w3.org/1999/xlink" x="0px" y="0px"
	 viewBox="0 0 113.1 36.7" style="enable-background:new 0 0 113.1 36.7;" xml:space="preserve">
<style type="text/css">
	.st0{fill:url(#SVGID_1_);stroke:#C9AB6E;stroke-width:3;stroke-miterlimit:10;}
	.st1{enable-background:new    ;}
	.st2{fill:#F0E6D3;}
</style>
<linearGradient id="SVGID_1_" gradientUnits="userSpaceOnUse" x1="56.55" y1="425.82" x2="56.55" y2="373.78" gradientTransform="matrix(1 0 0 1 0 -380.9)">
	<stop  offset="0" style="stop-color:#060C12;stop-opacity:0.9"/>
	<stop  offset="0.5" style="stop-color:#060C12"/>
	<stop  offset="1" style="stop-color:#060C12;stop-opacity:0.9"/>
</linearGradient>
<rect x="1.5" y="1.5" class="st0" width="110.1" height="33.7"/>
<g class="st1">
	<path class="st2" d="M25,17.7h9v1.2H23.5v-1.2H22v-7h3V17.7z M43,24.6h-1.5v1.2H40v-4.6H23.5V20H43V24.6z M38.5,18.8h-3v-3.5h-3
		v-1.2h3v-3.5h3V18.8z M43,18.8h-3v-8.1h3V18.8z"/>
	<path class="st2" d="M55,23.5h-1.5v-1.2h-3v1.2H49v1.2h-3v-1.2h1.5v-1.2H49v-1.2h1.5v-9.3h3v9.3H55v1.2h1.5v1.2H58v1.2h-3V23.5z
		 M65.4,25.8h-3v-7H58v-1.2h4.5v-7h3V25.8z"/>
	<path class="st2" d="M90.9,24.6H69.9v-1.2h20.9V24.6z M83.4,17.7h-1.5v-1.2h-3v1.2h-1.5v1.2h-6v-1.2h4.5v-1.2h1.5v-1.2h1.5v-3.5h3
		v3.5h1.5v1.2h1.5v1.2h4.5v1.2h-6V17.7z"/>
</g>
</svg>
