<?xml version="1.0" encoding="utf-8"?>
<!-- Generator: Adobe Illustrator 25.3.1, SVG Export Plug-In . SVG Version: 6.00 Build 0)  -->
<svg version="1.1" id="Layer_1" xmlns="http://www.w3.org/2000/svg" xmlns:xlink="http://www.w3.org/1999/xlink" x="0px" y="0px"
	 viewBox="0 0 113.1 36.5" style="enable-background:new 0 0 113.1 36.5;" xml:space="preserve">
<style type="text/css">
	.st0{fill:url(#SVGID_1_);stroke:#C9AB6E;stroke-width:3;stroke-miterlimit:10;}
	.st1{enable-background:new    ;}
	.st2{fill:#F0E6D3;}
</style>
<linearGradient id="SVGID_1_" gradientUnits="userSpaceOnUse" x1="56.55" y1="-25.8186" x2="56.55" y2="26.2237" gradientTransform="matrix(1 0 0 -1 0 19.0989)">
	<stop  offset="0" style="stop-color:#060C12;stop-opacity:0.9"/>
	<stop  offset="0.5" style="stop-color:#060C12"/>
	<stop  offset="1" style="stop-color:#060C12;stop-opacity:0.9"/>
</linearGradient>
<rect x="1.5" y="1.5" class="st0" width="110.1" height="33.7"/>
<g class="st1">
	<path class="st2" d="M31,24.6h-6v-1.2h-1.5v-1.2H22v-8.1h1.5V13H25v-1.2h6V13h1.5v1.2H34v8.1h-1.5v1.2H31V24.6z M26.5,14.2H25v8.1
		h1.5v1.2h3v-1.2H31v-8.1h-1.5V13h-3V14.2z M40.1,17.7h4.5v1.2h-4.5v7h-3V10.7h3V17.7z"/>
	<path class="st2" d="M47.6,23.5h-1.5V11.9h3v11.6h6v-1.2h3v1.2h-1.5v1.2h-9V23.5z M65.6,25.8h-3V10.7h3V25.8z"/>
	<path class="st2" d="M73.1,18.8v-1.2h-1.5v-3.5h1.5V13h1.5v-1.2h12V13h1.5v1.2h1.5v3.5h-1.5v1.2h-1.5V20h-4.5v3.5h9v1.2h-21v-1.2h9
		V20h-4.5v-1.2H73.1z M74.6,14.2v3.5h1.5v1.2h9v-1.2h1.5v-3.5h-1.5V13h-9v1.2H74.6z"/>
</g>
</svg>
