<?xml version="1.0" encoding="utf-8"?>
<!-- Generator: Adobe Illustrator 25.3.1, SVG Export Plug-In . SVG Version: 6.00 Build 0)  -->
<svg version="1.1" id="Layer_1" xmlns="http://www.w3.org/2000/svg" xmlns:xlink="http://www.w3.org/1999/xlink" x="0px" y="0px"
	 viewBox="0 0 113.1 36.7" style="enable-background:new 0 0 113.1 36.7;" xml:space="preserve">
<style type="text/css">
	.st0{fill:url(#SVGID_1_);stroke:#C9AB6E;stroke-width:3;stroke-miterlimit:10;}
	.st1{enable-background:new    ;}
	.st2{fill:#F0E6D3;}
</style>
<linearGradient id="SVGID_1_" gradientUnits="userSpaceOnUse" x1="56.535" y1="393.48" x2="56.535" y2="359.91" gradientTransform="matrix(1 0 0 1 0 -358.18)">
	<stop  offset="0" style="stop-color:#32281E"/>
	<stop  offset="0.5" style="stop-color:#32281E;stop-opacity:0.9"/>
	<stop  offset="1" style="stop-color:#32281E"/>
</linearGradient>
<rect x="1.5" y="1.5" class="st0" width="110.1" height="33.7"/>
<g class="st1">
	<path class="st2" d="M31,24.7h-6v-1.2h-1.5v-1.2H22v-8.1h1.5v-1.2H25V12h6v1.2h1.5v1.2H34v8.1h-1.5v1.2H31V24.7z M26.5,14.3H25v8.1
		h1.5v1.2h3v-1.2H31v-8.1h-1.5v-1.2h-3V14.3z M40,17.8h4.5v1.2H40v7h-3V10.8h3V17.8z"/>
	<path class="st2" d="M47.5,23.6H46V12h3v11.6h6v-1.2h3v1.2h-1.5v1.2h-9V23.6z M65.4,25.9h-3V10.8h3V25.9z"/>
	<path class="st2" d="M72.9,18.9v-1.2h-1.5v-3.5h1.5v-1.2h1.5V12h12v1.2h1.5v1.2h1.5v3.5h-1.5v1.2h-1.5v1.2h-4.5v3.5h9v1.2H69.9
		v-1.2h9v-3.5h-4.5v-1.2H72.9z M74.4,14.3v3.5h1.5v1.2h9v-1.2h1.5v-3.5h-1.5v-1.2h-9v1.2H74.4z"/>
</g>
</svg>
