<svg id="Layer_1" data-name="Layer 1" xmlns="http://www.w3.org/2000/svg" viewBox="0 0 48.59 48.72"><defs><style>.cls-1{fill:#d34535;}.cls-1,.cls-2,.cls-3{stroke:#000;stroke-miterlimit:10;stroke-width:0.5px;}.cls-2{fill:#f0e6d3;}.cls-3{fill:#f0e6d2;}</style></defs><path class="cls-1" d="M24.58.74A24.24,24.24,0,0,0,.81,24.93,24.24,24.24,0,0,0,24.58,49a24.28,24.28,0,0,0,24.31-24.3A24.28,24.28,0,0,0,24.58.74Zm.06,43.15a19,19,0,0,1,0-38.08A19.17,19.17,0,0,1,43.83,24.7,19.17,19.17,0,0,1,24.64,43.89Z" transform="translate(-0.56 -0.49)"/><path class="cls-2" d="M25,28a2.7,2.7,0,1,0-2.7-2.7A2.7,2.7,0,0,0,25,28Z" transform="translate(-0.56 -0.49)"/><path class="cls-2" d="M22.9,14.8a14,14,0,0,1,1.62,2.56.53.53,0,0,0,.54.27c.13,0,.13-.13.27-.27a15.68,15.68,0,0,1,1.48-2.56,15.64,15.64,0,0,1,3.91-3.37H19A13.14,13.14,0,0,1,22.9,14.8Z" transform="translate(-0.56 -0.49)"/><path class="cls-2" d="M23,35.5a13,13,0,0,0,1.62-2.56.55.55,0,0,1,.54-.27c.14,0,.14.13.27.27a16.48,16.48,0,0,0,1.49,2.56,15.64,15.64,0,0,0,3.91,3.37H19.08A13.38,13.38,0,0,0,23,35.5Z" transform="translate(-0.56 -0.49)"/><path class="cls-2" d="M14.64,27.07a13.62,13.62,0,0,1,2.56-1.62.53.53,0,0,0,.27-.54c0-.13-.14-.13-.27-.27a14.88,14.88,0,0,1-2.56-1.48,15.89,15.89,0,0,1-3.38-3.91V31A13.32,13.32,0,0,1,14.64,27.07Z" transform="translate(-0.56 -0.49)"/><path class="cls-2" d="M35.26,27.27a13.62,13.62,0,0,0-2.56-1.62.53.53,0,0,1-.27-.54c0-.13.14-.13.27-.27a14.88,14.88,0,0,0,2.56-1.48,15.89,15.89,0,0,0,3.38-3.91V31.19A13.32,13.32,0,0,0,35.26,27.27Z" transform="translate(-0.56 -0.49)"/><path class="cls-3" d="M24.76,7.77a17.38,17.38,0,0,0,0,34.76A17.51,17.51,0,0,0,42.29,25,17.51,17.51,0,0,0,24.76,7.77Zm0,31.1A13.72,13.72,0,1,1,38.64,25,13.8,13.8,0,0,1,24.8,38.87Z" transform="translate(-0.56 -0.49)"/></svg>