<?xml version="1.0" encoding="utf-8"?>
<!-- Generator: Adobe Illustrator 25.3.1, SVG Export Plug-In . SVG Version: 6.00 Build 0)  -->
<svg version="1.1" id="Layer_1" xmlns="http://www.w3.org/2000/svg" xmlns:xlink="http://www.w3.org/1999/xlink" x="0px" y="0px"
	 viewBox="0 0 41.6 41.6" style="enable-background:new 0 0 41.6 41.6;" xml:space="preserve">
<style type="text/css">
	.st0{fill:#F0E6D3;stroke:#000000;stroke-width:0.5;stroke-miterlimit:10;}
	.st1{fill:#F0E6D2;stroke:#000000;stroke-width:0.5;stroke-miterlimit:10;}
</style>
<path class="st0" d="M20.9,23.7c1.5,0,2.7-1.2,2.7-2.7c0-1.5-1.2-2.7-2.7-2.7c-1.5,0-2.7,1.2-2.7,2.7C18.2,22.5,19.4,23.7,20.9,23.7
	z"/>
<path class="st0" d="M18.8,10.5c0.7,0.8,1.2,1.8,1.6,2.6c0.1,0.3,0.4,0.3,0.5,0.3c0.1,0,0.1-0.1,0.3-0.3c0.4-0.9,0.9-1.8,1.5-2.6
	c1.1-1.3,2.4-2.4,3.9-3.4H14.9C16.4,7.9,17.8,9.1,18.8,10.5z"/>
<path class="st0" d="M18.9,31.2c0.7-0.8,1.2-1.8,1.6-2.6c0.1-0.3,0.4-0.3,0.5-0.3c0.1,0,0.1,0.1,0.3,0.3c0.4,0.9,0.9,1.8,1.5,2.6
	c1.1,1.3,2.4,2.4,3.9,3.4H15C16.5,33.7,17.9,32.5,18.9,31.2z"/>
<path class="st0" d="M10.6,22.8c0.8-0.7,1.8-1.2,2.6-1.6c0.3-0.1,0.3-0.4,0.3-0.5c0-0.1-0.1-0.1-0.3-0.3c-0.9-0.4-1.8-0.9-2.6-1.5
	c-1.3-1.1-2.4-2.4-3.4-3.9l0,11.7C8,25.2,9.2,23.8,10.6,22.8z"/>
<path class="st0" d="M31.2,23c-0.8-0.7-1.8-1.2-2.6-1.6c-0.3-0.1-0.3-0.4-0.3-0.5c0-0.1,0.1-0.1,0.3-0.3c0.9-0.4,1.8-0.9,2.6-1.5
	c1.3-1.1,2.4-2.4,3.4-3.9l0,11.7C33.8,25.4,32.6,24,31.2,23z"/>
<g>
	<path class="st1" d="M20.7,3.5c-9.5,0.1-17.2,8-17.1,17.4c0,9.4,7.7,17.2,17.1,17.3c9.7,0,17.6-7.9,17.5-17.5
		C38.2,11.2,30.3,3.4,20.7,3.5z M20.7,34.6c-7.4-0.1-13.5-6.3-13.5-13.7c0-7.5,6.1-13.7,13.5-13.8c7.6,0,13.8,6.1,13.8,13.6
		C34.6,28.3,28.4,34.6,20.7,34.6z"/>
</g>
</svg>
