<?xml version="1.0" encoding="utf-8"?>
<!-- Generator: Adobe Illustrator 25.3.1, SVG Export Plug-In . SVG Version: 6.00 Build 0)  -->
<svg version="1.1" id="Layer_1" xmlns="http://www.w3.org/2000/svg" xmlns:xlink="http://www.w3.org/1999/xlink" x="0px" y="0px"
	 viewBox="0 0 113.1 36.7" style="enable-background:new 0 0 113.1 36.7;" xml:space="preserve">
<style type="text/css">
	.st0{fill:url(#SVGID_1_);stroke:#C9AB6E;stroke-width:3;stroke-miterlimit:10;}
	.st1{enable-background:new    ;}
	.st2{fill:#F0E6D3;}
</style>
<linearGradient id="SVGID_1_" gradientUnits="userSpaceOnUse" x1="56.55" y1="425.82" x2="56.55" y2="373.78" gradientTransform="matrix(1 0 0 1 0 -380.9)">
	<stop  offset="0" style="stop-color:#060C12;stop-opacity:0.9"/>
	<stop  offset="0.5" style="stop-color:#060C12"/>
	<stop  offset="1" style="stop-color:#060C12;stop-opacity:0.9"/>
</linearGradient>
<rect x="1.5" y="1.5" class="st0" width="110.1" height="33.7"/>
<g class="st1">
	<path class="st2" d="M26.5,18.8V13h-3v-1.2h18V13h-3v5.8h3V20H34v3.5h9v1.2H22v-1.2h9V20h-7.5v-1.2H26.5z M35.5,18.8V13h-6v5.8
		H35.5z"/>
	<path class="st2" d="M58,24.6h-3v-1.2h-1.5v-1.2h-3v1.2H49v1.2h-3v-1.2h1.5v-1.2H49v-1.2h1.5V13H46v-1.2h12V13h-4.5v8.1H55v1.2h1.5
		v1.2H58V24.6z M65.4,25.8h-3V10.7h3V25.8z"/>
	<path class="st2" d="M78.9,17.7h-1.5v-1.2h-3v1.2h-1.5v1.2h-3v-1.2h1.5v-1.2h1.5v-1.2h1.5v-4.6h3v4.6h1.5v1.2h1.5v1.2h1.5v1.2h-3
		V17.7z M74.4,24.6h15v1.2H72.9v-1.2h-1.5V20h3V24.6z M81.9,13h4.5v-2.3h3v8.1h-3v-2.3h-4.5v-1.2h4.5v-1.2h-4.5V13z"/>
</g>
</svg>
