<?xml version="1.0" encoding="utf-8"?>
<!-- Generator: Adobe Illustrator 25.3.1, SVG Export Plug-In . SVG Version: 6.00 Build 0)  -->
<svg version="1.1" id="Layer_1" xmlns="http://www.w3.org/2000/svg" xmlns:xlink="http://www.w3.org/1999/xlink" x="0px" y="0px"
	 viewBox="0 0 113.1 36.7" style="enable-background:new 0 0 113.1 36.7;" xml:space="preserve">
<style type="text/css">
	.st0{fill:url(#SVGID_1_);stroke:#C9AB6E;stroke-width:3;stroke-miterlimit:10;}
	.st1{enable-background:new    ;}
	.st2{fill:#F0E6D3;}
</style>
<linearGradient id="SVGID_1_" gradientUnits="userSpaceOnUse" x1="56.535" y1="-5.48" x2="56.535" y2="28.09" gradientTransform="matrix(1 0 0 -1 0 29.82)">
	<stop  offset="0" style="stop-color:#32281E"/>
	<stop  offset="0.5" style="stop-color:#32281E;stop-opacity:0.9"/>
	<stop  offset="1" style="stop-color:#32281E"/>
</linearGradient>
<rect x="1.5" y="1.5" class="st0" width="110.1" height="33.7"/>
<g class="st1">
	<path class="st2" d="M26.6,18.9v-5.8h-3V12h18v1.2h-3v5.8h3v1.2h-7.5v3.5h9v1.2H22.1v-1.2h9v-3.5h-7.5v-1.2H26.6z M35.6,18.9v-5.8
		h-6v5.8H35.6z"/>
	<path class="st2" d="M58,24.7h-3v-1.2h-1.5v-1.2h-3v1.2h-1.5v1.2h-3v-1.2h1.5v-1.2h1.5v-1.2h1.5v-8.1h-4.5V12h12v1.2h-4.5v8.1H55
		v1.2h1.5v1.2H58V24.7z M65.5,25.9h-3V10.8h3V25.9z"/>
	<path class="st2" d="M79,17.8h-1.5v-1.2h-3v1.2H73v1.2h-3v-1.2h1.5v-1.2H73v-1.2h1.5v-4.6h3v4.6H79v1.2h1.5v1.2H82v1.2h-3V17.8z
		 M74.5,24.7h15v1.2H73v-1.2h-1.5v-4.6h3V24.7z M82,13.1h4.5v-2.3h3v8.1h-3v-2.3H82v-1.2h4.5v-1.2H82V13.1z"/>
</g>
</svg>
