<svg id="Layer_1" data-name="Layer 1" xmlns="http://www.w3.org/2000/svg" viewBox="0 0 42.12 47.68"><defs><style>.cls-1{fill:none;stroke-width:2px;}.cls-1,.cls-2{stroke:#c9ab6e;stroke-miterlimit:10;}.cls-2{fill:#32281e;}.cls-3{fill:#c9ab6e;}.cls-4{fill:#c8ab6f;}</style></defs><path class="cls-1" d="M32.64,9.73,30,12.33A16.67,16.67,0,0,1,25,45a16.67,16.67,0,0,1-5-32.65l-2.6-2.6a20.06,20.06,0,1,0,15.28,0Z" transform="translate(-3.94 -1.66)"/><path class="cls-2" d="M8,28.28A16.83,16.83,0,0,0,25,45a16.67,16.67,0,0,0,5-32.65l-5,5-5-5A16.74,16.74,0,0,0,8,28.28Z" transform="translate(-3.94 -1.66)"/><path class="cls-1" d="M25,8.22" transform="translate(-3.94 -1.66)"/><path class="cls-1" d="M17.36,9.73,25,17.35l7.64-7.62" transform="translate(-3.94 -1.66)"/><rect class="cls-3" x="21.89" y="2.94" width="6.21" height="6.21" transform="translate(-0.89 17.79) rotate(-45)"/><path class="cls-4" d="M16.16,20.64a6.35,6.35,0,0,0-1.42,2.25,6.2,6.2,0,0,0-.24,3.33h1.66l-1.37,1.07L16.16,29h1.71l-1.37.88,1,.88H19l1.62,1.47a1.49,1.49,0,0,0,.53,2.93,2,2,0,0,0,1.13-.49,1.91,1.91,0,0,0,.49-.68l-1.13-5.57a9,9,0,0,1-4.2-3.52A8.82,8.82,0,0,1,16.16,20.64Z" transform="translate(-3.94 -1.66)"/><path class="cls-4" d="M33.84,20.64a6.35,6.35,0,0,1,1.42,2.25,6.2,6.2,0,0,1,.24,3.33H33.84l1.37,1.07L33.84,29H32.13l1.37.88-1,.88H31l-1.62,1.47a1.49,1.49,0,0,1-.53,2.93,2,2,0,0,1-1.13-.49,1.91,1.91,0,0,1-.49-.68l1.13-5.57a9,9,0,0,0,4.2-3.52A8.82,8.82,0,0,0,33.84,20.64Z" transform="translate(-3.94 -1.66)"/><polygon class="cls-4" points="21.85 27.88 23.86 23.39 22.34 19.82 20.95 19.82 19.57 19.82 18.05 23.39 20.06 27.88 20.06 34.24 19.08 37.02 20.06 39.18 20.95 39.18 21.85 39.18 22.83 37.02 21.85 34.24 21.85 27.88"/></svg>