<svg id="Layer_1" data-name="Layer 1" xmlns="http://www.w3.org/2000/svg" viewBox="0 0 42.12 47.68"><defs><style>.cls-1{fill:none;stroke-width:2px;}.cls-1,.cls-2{stroke:#c9ab6e;stroke-miterlimit:10;}.cls-2{fill:#32281e;}.cls-3,.cls-4{fill:#c9ab6e;}.cls-4{opacity:0.5;}</style></defs><path class="cls-1" d="M32.64,9.73,30,12.33A16.67,16.67,0,0,1,25,45a16.67,16.67,0,0,1-5-32.65l-2.6-2.6a20.06,20.06,0,1,0,15.28,0Z" transform="translate(-3.94 -1.66)"/><path class="cls-2" d="M8,28.28A16.83,16.83,0,0,0,25,45a16.67,16.67,0,0,0,5-32.65l-5,5-5-5A16.74,16.74,0,0,0,8,28.28Z" transform="translate(-3.94 -1.66)"/><path class="cls-1" d="M25,8.22" transform="translate(-3.94 -1.66)"/><path class="cls-1" d="M17.36,9.73,25,17.35l7.64-7.62" transform="translate(-3.94 -1.66)"/><rect class="cls-3" x="21.89" y="2.94" width="6.21" height="6.21" transform="translate(-0.89 17.79) rotate(-45)"/><polygon class="cls-3" points="13.42 19.63 26.86 19.63 24.59 21.89 16.15 21.89 16.15 30.25 13.56 32.84 13.42 19.63"/><polygon class="cls-4" points="28.7 35.85 28.7 22.42 26.43 24.69 26.43 33.13 18.08 33.13 15.49 35.72 28.7 35.85"/><rect class="cls-4" x="18.61" y="25.07" width="4.9" height="4.9"/></svg>