<?xml version="1.0" encoding="utf-8"?>
<!-- Generator: Adobe Illustrator 25.3.1, SVG Export Plug-In . SVG Version: 6.00 Build 0)  -->
<svg version="1.1" id="Layer_1" xmlns="http://www.w3.org/2000/svg" xmlns:xlink="http://www.w3.org/1999/xlink" x="0px" y="0px"
	 viewBox="0 0 113.1 36.7" style="enable-background:new 0 0 113.1 36.7;" xml:space="preserve">
<style type="text/css">
	.st0{fill:url(#SVGID_1_);stroke:#C9AB6E;stroke-width:3;stroke-miterlimit:10;}
	.st1{enable-background:new    ;}
	.st2{fill:#F0E6D3;}
</style>
<linearGradient id="SVGID_1_" gradientUnits="userSpaceOnUse" x1="56.535" y1="405.37" x2="56.535" y2="353.33" gradientTransform="matrix(1 0 0 1 0 -360.49)">
	<stop  offset="0" style="stop-color:#060C12;stop-opacity:0.9"/>
	<stop  offset="0.5" style="stop-color:#060C12"/>
	<stop  offset="1" style="stop-color:#060C12;stop-opacity:0.9"/>
</linearGradient>
<rect x="1.5" y="1.5" class="st0" width="110.1" height="33.7"/>
<g class="st1">
	<path class="st2" d="M56.5,23.6H55v1.2h-6v-1.2h-1.5v-1.2H46v-8.1h1.5v-1.2H49V12h6v1.2h1.5v1.2H58v1.2h1.5v-4.6h3v15.1h-3v-4.6H58
		v1.2h-1.5V23.6z M50.5,23.6h3v-1.2H55v-8.1h-1.5v-1.2h-3v1.2H49v8.1h1.5V23.6z M59.5,16.6H58v3.5h1.5V16.6z M67,10.8v15.1h-3V10.8
		H67z"/>
</g>
</svg>
